<svg width="69" height="28" viewBox="0 0 69 28" fill="none" xmlns="http://www.w3.org/2000/svg">
<g clip-path="url(#clip0_202_199)">
<path d="M12.491 3.59529C11.6903 4.53723 10.4093 5.28017 9.12823 5.17403C8.9681 3.90042 9.59528 2.54722 10.3292 1.71141C11.1299 0.742938 12.531 0.053067 13.6653 0C13.7987 1.32668 13.2783 2.62682 12.491 3.59529ZM13.6519 5.4261C11.7971 5.31997 10.2091 6.47417 9.32839 6.47417C8.43433 6.47417 7.08656 5.47917 5.6187 5.5057C3.71047 5.53224 1.93569 6.60684 0.961564 8.31825C-1.04007 11.7411 0.441139 16.809 2.37605 19.595C3.32349 20.9747 4.45775 22.4871 5.9523 22.4341C7.36679 22.381 7.92725 21.5187 9.63531 21.5187C11.3567 21.5187 11.8505 22.4341 13.345 22.4075C14.8929 22.381 15.8671 21.0278 16.8145 19.6481C17.8954 18.0826 18.3357 16.5569 18.3624 16.4773C18.3357 16.4508 15.3733 15.3231 15.3466 11.9268C15.32 9.08772 17.6819 7.73452 17.7886 7.65492C16.4542 5.69144 14.3725 5.47917 13.6519 5.4261ZM24.3673 1.57874V22.2616H27.5966V15.1904H32.067C36.1503 15.1904 39.0193 12.4044 39.0193 8.37132C39.0193 4.33823 36.2037 1.57874 32.1737 1.57874H24.3673ZM27.5966 4.28516H31.3197C34.122 4.28516 35.7233 5.77104 35.7233 8.38459C35.7233 10.9981 34.122 12.4973 31.3063 12.4973H27.5966V4.28516ZM44.9175 22.4208C46.9458 22.4208 48.8273 21.3993 49.6813 19.7807H49.7481V22.2616H52.7372V11.9666C52.7372 8.98159 50.3352 7.05791 46.6389 7.05791C43.2094 7.05791 40.674 9.00812 40.5806 11.688H43.4896C43.7298 10.4144 44.9174 9.57859 46.5454 9.57859C48.5204 9.57859 49.628 10.494 49.628 12.1789V13.3198L45.598 13.5586C41.8483 13.7842 39.82 15.3098 39.82 17.9632C39.82 20.6431 41.915 22.4208 44.9175 22.4208ZM45.7848 19.9665C44.0634 19.9665 42.9692 19.1439 42.9692 17.8836C42.9692 16.5834 44.0234 15.8272 46.0384 15.7078L49.628 15.4823V16.6498C49.628 18.5867 47.9733 19.9665 45.7848 19.9665ZM56.7271 27.8867C59.8763 27.8867 61.3575 26.6927 62.6519 23.0709L68.3232 7.25691H65.0406L61.2374 19.4756H61.1707L57.3676 7.25691H53.9915L59.4627 22.3147L59.1691 23.2301C58.6754 24.7823 57.8747 25.3793 56.4469 25.3793C56.1933 25.3793 55.6996 25.3528 55.4994 25.3262V27.8071C55.6862 27.8602 56.4869 27.8867 56.7271 27.8867Z" fill="#2D2D2D"/>
</g>
<defs>
<clipPath id="clip0_202_199">
<rect width="68.3224" height="27.8867" fill="white"/>
</clipPath>
</defs>
</svg>
