<svg width="70" height="28" viewBox="0 0 70 28" fill="none" xmlns="http://www.w3.org/2000/svg">
<g clip-path="url(#clip0_202_210)">
<path d="M32.9738 13.6237V21.7982H30.3992V1.61085H37.2275C38.0425 1.5937 38.8529 1.73931 39.6118 2.03927C40.3707 2.33923 41.0631 2.7876 41.649 3.3585C42.2409 3.89475 42.7119 4.5524 43.0305 5.28725C43.3491 6.02211 43.5078 6.81714 43.496 7.61891C43.513 8.42497 43.3567 9.22519 43.0379 9.96472C42.7191 10.7043 42.2453 11.3656 41.649 11.9035C40.455 13.0503 38.9812 13.6232 37.2275 13.6221H32.9738V13.6237ZM32.9738 4.09622V11.1432H37.2914C37.7648 11.1573 38.2358 11.0718 38.6745 10.8921C39.1131 10.7123 39.5097 10.4424 39.8388 10.0994C40.1662 9.77881 40.4265 9.39529 40.6042 8.97158C40.7819 8.54787 40.8735 8.09257 40.8735 7.6326C40.8735 7.17262 40.7819 6.71732 40.6042 6.29361C40.4265 5.8699 40.1662 5.48639 39.8388 5.16575C39.5138 4.81559 39.1186 4.53901 38.6794 4.35434C38.2403 4.16968 37.7671 4.08114 37.2914 4.09461H32.9738V4.09622Z" fill="#5F6368"/>
<path d="M49.4287 7.53497C51.3317 7.53497 52.8338 8.04719 53.9351 9.07162C55.0363 10.096 55.5864 11.5006 55.5853 13.2853V21.7981H53.1227V19.8813H53.0108C51.9447 21.4598 50.5268 22.2491 48.7571 22.2491C47.2465 22.2491 45.9826 21.7981 44.9656 20.896C44.4775 20.482 44.0873 19.9636 43.8234 19.3784C43.5595 18.7932 43.4285 18.1561 43.44 17.5135C43.44 16.0842 43.9763 14.9476 45.0487 14.1036C46.1212 13.2595 47.553 12.8364 49.344 12.8343C50.8727 12.8343 52.1318 13.1162 53.1211 13.6799V13.0872C53.124 12.6491 53.0301 12.2158 52.8462 11.8188C52.6622 11.4218 52.3929 11.071 52.0577 10.7919C51.3769 10.1732 50.4896 9.83557 49.5727 9.84638C48.1345 9.84638 46.9965 10.4574 46.1585 11.6794L43.891 10.241C45.1383 8.43699 46.9842 7.53497 49.4287 7.53497ZM46.0978 17.5699C46.096 17.8999 46.1726 18.2256 46.3212 18.5198C46.4697 18.814 46.6859 19.0682 46.9517 19.2611C47.5211 19.7123 48.2279 19.9513 48.9522 19.9377C50.0386 19.9358 51.08 19.5003 51.8482 18.7264C52.7011 17.9178 53.1275 16.9691 53.1275 15.8802C52.3247 15.2359 51.2054 14.9138 49.7694 14.9138C48.7235 14.9138 47.8515 15.1677 47.1532 15.6756C46.448 16.1911 46.0978 16.8177 46.0978 17.5699Z" fill="#5F6368"/>
<path d="M69.7215 7.98602L61.1246 27.8867H58.4669L61.6572 20.9235L56.0043 7.98602H58.8027L62.8885 17.9082H62.9444L66.9183 7.98602H69.7215Z" fill="#5F6368"/>
<path d="M22.57 11.8615C22.571 11.0712 22.5046 10.2822 22.3717 9.50336H11.5137V13.9699H17.7326C17.6054 14.6833 17.336 15.3633 16.9408 15.969C16.5456 16.5747 16.0327 17.0936 15.4331 17.4942V20.3936H19.1447C21.3179 18.3753 22.57 15.3906 22.57 11.8615Z" fill="#4285F4"/>
<path d="M11.5136 23.1947C14.6207 23.1947 17.2369 22.167 19.1446 20.3952L15.4331 17.4959C14.4 18.2014 13.0696 18.6041 11.5136 18.6041C8.51049 18.6041 5.96149 16.5649 5.04999 13.817H1.2265V16.8049C2.1848 18.7256 3.65425 20.3403 5.47079 21.4687C7.28733 22.597 9.37947 23.1946 11.5136 23.1947Z" fill="#34A853"/>
<path d="M5.05004 13.817C4.56817 12.3771 4.56817 10.8177 5.05004 9.37781V6.38989H1.22655C0.420394 8.00571 0.000549316 9.78903 0.000549316 11.5974C0.000549316 13.4058 0.420394 15.1891 1.22655 16.8049L5.05004 13.817Z" fill="#FBBC04"/>
<path d="M11.5136 4.59075C13.1556 4.56373 14.7422 5.18862 15.9304 6.33035L19.2166 3.02028C17.1328 1.04886 14.3722 -0.0334802 11.5136 0.000150541C9.37947 0.000248514 7.28733 0.597822 5.47079 1.72616C3.65425 2.85449 2.1848 4.46918 1.2265 6.38995L5.04999 9.37787C5.96149 6.62995 8.51049 4.59075 11.5136 4.59075Z" fill="#EA4335"/>
</g>
<defs>
<clipPath id="clip0_202_210">
<rect width="69.7168" height="27.8867" fill="white"/>
</clipPath>
</defs>
</svg>
