<svg width="55" height="42" viewBox="0 0 55 42" fill="none" xmlns="http://www.w3.org/2000/svg">
<g clip-path="url(#clip0_202_218)">
<path d="M53.8874 26.9244V26.2798H53.7175L53.5209 26.7226L53.3254 26.2798H53.1544V26.9244H53.2752V26.4383L53.4589 26.8578H53.5839L53.7677 26.4372V26.9244H53.8874ZM52.8093 26.9244V26.3897H53.0273V26.2809H52.4717V26.3897H52.6896V26.9244H52.8093Z" fill="#0099DF"/>
<path d="M34.5698 29.6969H19.8662V3.56323H34.5698V29.6969Z" fill="#6C6BBD"/>
<path d="M20.8082 16.628C20.8082 11.3267 23.318 6.6044 27.2264 3.56117C24.3683 1.33582 20.7612 0.00757599 16.8411 0.00757599C7.56053 0.00757599 0.0375977 7.44868 0.0375977 16.628C0.0375977 25.8074 7.56053 33.2485 16.8411 33.2485C20.7612 33.2485 24.3683 31.9202 27.2264 29.6949C23.318 26.6516 20.8082 21.9294 20.8082 16.628Z" fill="#EB001B"/>
<path d="M54.4002 16.628C54.4002 25.8074 46.8772 33.2485 37.5967 33.2485C33.6766 33.2485 30.0695 31.9202 27.2103 29.6949C31.1198 26.6516 33.6296 21.9294 33.6296 16.628C33.6296 11.3267 31.1198 6.6044 27.2103 3.56117C30.0695 1.33582 33.6766 0.00757599 37.5967 0.00757599C46.8772 0.00757599 54.4002 7.44868 54.4002 16.628Z" fill="#0099DF"/>
<path d="M39.5275 37.0769C39.723 37.0769 40.004 37.1138 40.2188 37.1973L39.9196 38.1018C39.7145 38.0184 39.5093 37.9909 39.3127 37.9909C38.6781 37.9909 38.3607 38.3966 38.3607 39.1258V41.6005H37.3895V37.1878H38.3511V37.7235C38.6033 37.3357 38.9676 37.0769 39.5275 37.0769ZM35.9396 38.0648H34.353V40.0588C34.353 40.5015 34.5111 40.7974 34.9973 40.7974C35.2494 40.7974 35.5667 40.7139 35.8552 40.548L36.1352 41.3691C35.8275 41.5815 35.3424 41.7114 34.9225 41.7114C33.7739 41.7114 33.3732 41.1017 33.3732 40.0768V38.0648H32.4672V37.1878H33.3732V35.849H34.353V37.1878H35.9396V38.0648ZM23.5147 39.0063C23.6183 38.3692 24.0094 37.9349 24.7006 37.9349C25.3257 37.9349 25.7274 38.3227 25.83 39.0063H23.5147ZM26.8386 39.3941C26.829 38.0184 25.97 37.0769 24.7188 37.0769C23.4121 37.0769 22.4975 38.0184 22.4975 39.3941C22.4975 40.7964 23.4495 41.7104 24.7851 41.7104C25.4571 41.7104 26.0725 41.5445 26.6142 41.0922L26.1377 40.3811C25.7648 40.677 25.2883 40.8429 24.8406 40.8429C24.2156 40.8429 23.6461 40.5565 23.5061 39.7629H26.8194C26.829 39.6425 26.8386 39.5231 26.8386 39.3941ZM31.1038 38.3142C30.8335 38.1473 30.2833 37.9349 29.7138 37.9349C29.1817 37.9349 28.8644 38.1293 28.8644 38.4526C28.8644 38.7475 29.1999 38.8309 29.6198 38.8859L30.0771 38.9503C31.0483 39.0898 31.6359 39.4956 31.6359 40.2712C31.6359 41.1112 30.8891 41.7114 29.6016 41.7114C28.8729 41.7114 28.2009 41.5265 27.6688 41.1387L28.1261 40.3906C28.453 40.64 28.9392 40.8524 29.6112 40.8524C30.2737 40.8524 30.6284 40.659 30.6284 40.3166C30.6284 40.0683 30.3762 39.9288 29.8441 39.8559L29.3869 39.7915C28.3879 39.652 27.8462 39.2092 27.8462 38.4896C27.8462 37.6126 28.5748 37.0769 29.7042 37.0769C30.4136 37.0769 31.0579 37.2343 31.5237 37.5386L31.1038 38.3142ZM43.0758 37.9888C42.876 37.9888 42.6912 38.0236 42.5191 38.0923C42.3482 38.1621 42.1997 38.2593 42.0747 38.384C41.9497 38.5087 41.8514 38.6587 41.7798 38.8331C41.7082 39.0074 41.6729 39.1997 41.6729 39.4089C41.6729 39.6192 41.7082 39.8105 41.7798 39.9848C41.8514 40.1592 41.9497 40.3092 42.0747 40.4339C42.1997 40.5586 42.3482 40.6558 42.5191 40.7256C42.6912 40.7953 42.876 40.8291 43.0758 40.8291C43.2756 40.8291 43.4615 40.7953 43.6325 40.7256C43.8045 40.6558 43.9541 40.5586 44.0791 40.4339C44.2062 40.3092 44.3045 40.1592 44.3772 39.9848C44.4487 39.8105 44.484 39.6192 44.484 39.4089C44.484 39.1997 44.4487 39.0074 44.3772 38.8331C44.3045 38.6587 44.2062 38.5087 44.0791 38.384C43.9541 38.2593 43.8045 38.1621 43.6325 38.0923C43.4615 38.0236 43.2756 37.9888 43.0758 37.9888ZM43.0758 37.0769C43.422 37.0769 43.7425 37.136 44.0374 37.2554C44.3323 37.3738 44.5876 37.5376 44.8024 37.7457C45.0182 37.9539 45.186 38.2001 45.3078 38.4833C45.4296 38.7675 45.4905 39.0761 45.4905 39.4089C45.4905 39.7418 45.4296 40.0503 45.3078 40.3346C45.186 40.6178 45.0182 40.865 44.8024 41.0732C44.5876 41.2814 44.3323 41.4441 44.0374 41.5635C43.7425 41.6819 43.422 41.741 43.0758 41.741C42.7296 41.741 42.4091 41.6819 42.1142 41.5635C41.8193 41.4441 41.5661 41.2814 41.3524 41.0732C41.1387 40.865 40.971 40.6178 40.8491 40.3346C40.7273 40.0503 40.6664 39.7418 40.6664 39.4089C40.6664 39.0761 40.7273 38.7675 40.8491 38.4833C40.971 38.2001 41.1387 37.9539 41.3524 37.7457C41.5661 37.5376 41.8193 37.3738 42.1142 37.2554C42.4091 37.136 42.7296 37.0769 43.0758 37.0769ZM17.8434 39.3941C17.8434 38.6185 18.3573 37.9814 19.1971 37.9814C19.9995 37.9814 20.5412 38.5911 20.5412 39.3941C20.5412 40.1972 19.9995 40.8059 19.1971 40.8059C18.3573 40.8059 17.8434 40.1697 17.8434 39.3941ZM21.4558 39.3941V37.1878H20.4856V37.7235C20.1768 37.3262 19.711 37.0769 19.0763 37.0769C17.8252 37.0769 16.8454 38.0458 16.8454 39.3941C16.8454 40.7414 17.8252 41.7114 19.0763 41.7114C19.711 41.7114 20.1768 41.4621 20.4856 41.0648V41.6005H21.4558V39.3941ZM15.9864 41.6005V38.8309C15.9864 37.788 15.3143 37.0864 14.232 37.0769C13.6625 37.0673 13.0738 37.2428 12.6635 37.862C12.3558 37.3727 11.8697 37.0769 11.188 37.0769C10.7125 37.0769 10.2456 37.2153 9.88128 37.732V37.1878H8.91113V41.6005H9.8909V39.1543C9.8909 38.3882 10.3204 37.9814 10.9829 37.9814C11.6271 37.9814 11.9541 38.3966 11.9541 39.1448V41.6005H12.9338V39.1543C12.9338 38.3882 13.3826 37.9814 14.0258 37.9814C14.6893 37.9814 15.0066 38.3966 15.0066 39.1448V41.6005H15.9864Z" fill="#2D2D2D"/>
<path d="M46.5364 41.2695V41.3783H46.6379C46.6604 41.3783 46.6796 41.373 46.6924 41.3646C46.7063 41.3561 46.7138 41.3413 46.7138 41.3234C46.7138 41.3054 46.7063 41.2917 46.6924 41.2832C46.6796 41.2737 46.6604 41.2695 46.6379 41.2695H46.5364ZM46.639 41.1934C46.6914 41.1934 46.732 41.205 46.7608 41.2283C46.7897 41.2515 46.8035 41.2832 46.8035 41.3234C46.8035 41.3572 46.7929 41.3847 46.7694 41.4069C46.7469 41.428 46.7138 41.4417 46.6721 41.447L46.8068 41.6002H46.702L46.577 41.4481H46.5364V41.6002H46.4488V41.1934H46.639ZM46.6123 41.7397C46.6604 41.7397 46.7052 41.7312 46.7458 41.7133C46.7875 41.6953 46.8238 41.671 46.8548 41.6404C46.8858 41.6097 46.9104 41.5738 46.9286 41.5315C46.9456 41.4903 46.9553 41.4459 46.9553 41.3984C46.9553 41.3508 46.9456 41.3065 46.9286 41.2653C46.9104 41.2241 46.8858 41.1871 46.8548 41.1564C46.8238 41.1258 46.7875 41.1015 46.7458 41.0846C46.7052 41.0666 46.6604 41.0582 46.6123 41.0582C46.5642 41.0582 46.5183 41.0666 46.4766 41.0846C46.4339 41.1015 46.3965 41.1258 46.3655 41.1564C46.3345 41.1871 46.3099 41.2241 46.2928 41.2653C46.2747 41.3065 46.2661 41.3508 46.2661 41.3984C46.2661 41.4459 46.2747 41.4903 46.2928 41.5315C46.3099 41.5738 46.3345 41.6097 46.3655 41.6404C46.3965 41.671 46.4339 41.6953 46.4766 41.7133C46.5183 41.7312 46.5642 41.7397 46.6123 41.7397ZM46.6123 40.9599C46.6753 40.9599 46.733 40.9715 46.7875 40.9948C46.8431 41.0169 46.8901 41.0486 46.9318 41.0888C46.9724 41.1279 47.0044 41.1744 47.0279 41.2283C47.0514 41.2811 47.0632 41.3382 47.0632 41.3984C47.0632 41.4586 47.0514 41.5157 47.0279 41.5685C47.0044 41.6214 46.9724 41.6678 46.9318 41.7069C46.8901 41.7471 46.8431 41.7788 46.7875 41.802C46.733 41.8253 46.6753 41.8369 46.6123 41.8369C46.5482 41.8369 46.4894 41.8253 46.4339 41.802C46.3783 41.7788 46.3302 41.7471 46.2896 41.7069C46.249 41.6678 46.217 41.6214 46.1935 41.5685C46.17 41.5157 46.1582 41.4586 46.1582 41.3984C46.1582 41.3382 46.17 41.2811 46.1935 41.2283C46.217 41.1744 46.249 41.1279 46.2896 41.0888C46.3302 41.0486 46.3783 41.0169 46.4339 40.9948C46.4894 40.9715 46.5482 40.9599 46.6123 40.9599Z" fill="#2D2D2D"/>
</g>
<defs>
<clipPath id="clip0_202_218">
<rect width="54.3791" height="41.8301" fill="white"/>
</clipPath>
</defs>
</svg>
