<svg width="55" height="42" viewBox="0 0 55 42" fill="none" xmlns="http://www.w3.org/2000/svg">
<g clip-path="url(#clip0_202_201)">
<path d="M9.89553 41.7376V38.9613C9.89553 37.897 9.24206 37.2029 8.1218 37.2029C7.56167 37.2029 6.95487 37.388 6.53477 37.9895C6.20803 37.4805 5.74125 37.2029 5.04109 37.2029C4.57432 37.2029 4.10755 37.3417 3.73413 37.8507V37.2954H2.75391V41.7376H3.73413V39.2851C3.73413 38.4985 4.15422 38.1283 4.80771 38.1283C5.46119 38.1283 5.78793 38.5448 5.78793 39.2851V41.7376H6.76816V39.2851C6.76816 38.4985 7.23493 38.1283 7.84173 38.1283C8.49522 38.1283 8.82196 38.5448 8.82196 39.2851V41.7376H9.89553ZM24.4122 37.2954H22.8252V35.9536H21.8449V37.2954H20.9581V38.1746H21.8449V40.2106C21.8449 41.2286 22.265 41.8301 23.3853 41.8301C23.8054 41.8301 24.2722 41.6913 24.5989 41.5062L24.3188 40.6733C24.0388 40.8584 23.712 40.9047 23.4786 40.9047C23.0119 40.9047 22.8252 40.6271 22.8252 40.1643V38.1746H24.4122V37.2954ZM32.7207 37.2029C32.1606 37.2029 31.7872 37.4805 31.5538 37.8507V37.2954H30.5736V41.7376H31.5538V39.2389C31.5538 38.4985 31.8806 38.0821 32.4874 38.0821C32.6741 38.0821 32.9075 38.1283 33.0942 38.1746L33.3742 37.2492C33.1875 37.2029 32.9075 37.2029 32.7207 37.2029ZM20.1645 37.6656C19.6978 37.3417 19.0443 37.2029 18.3441 37.2029C17.2239 37.2029 16.477 37.7582 16.477 38.6373C16.477 39.3777 17.0372 39.7942 18.0174 39.933L18.4842 39.9792C18.9976 40.0718 19.2777 40.2106 19.2777 40.442C19.2777 40.7659 18.9043 40.9972 18.2508 40.9972C17.5973 40.9972 17.0838 40.7659 16.7571 40.5345L16.2903 41.2749C16.8038 41.645 17.5039 41.8301 18.2041 41.8301C19.5111 41.8301 20.2579 41.2286 20.2579 40.3957C20.2579 39.6091 19.6511 39.1926 18.7175 39.0538L18.2508 39.0075C17.8307 38.9613 17.5039 38.8687 17.5039 38.5911C17.5039 38.2672 17.8307 38.0821 18.3441 38.0821C18.9043 38.0821 19.4644 38.3134 19.7445 38.4523L20.1645 37.6656ZM46.2105 37.2029C45.6504 37.2029 45.277 37.4805 45.0436 37.8507V37.2954H44.0633V41.7376H45.0436V39.2389C45.0436 38.4985 45.3703 38.0821 45.9771 38.0821C46.1638 38.0821 46.3972 38.1283 46.5839 38.1746L46.864 37.2492C46.6773 37.2029 46.3972 37.2029 46.2105 37.2029ZM33.701 39.5165C33.701 40.8584 34.6345 41.8301 36.0815 41.8301C36.735 41.8301 37.2018 41.6913 37.6685 41.3211L37.2018 40.5345C36.8284 40.8121 36.4549 40.951 36.0348 40.951C35.2413 40.951 34.6812 40.3957 34.6812 39.5165C34.6812 38.6836 35.2413 38.1284 36.0348 38.0821C36.4549 38.0821 36.8284 38.2209 37.2018 38.4985L37.6685 37.7119C37.2018 37.3417 36.735 37.2029 36.0815 37.2029C34.6345 37.2029 33.701 38.1746 33.701 39.5165ZM42.7564 39.5165V37.2954H41.7762V37.8507C41.4494 37.4343 40.9826 37.2029 40.3758 37.2029C39.1156 37.2029 38.1353 38.1746 38.1353 39.5165C38.1353 40.8584 39.1156 41.8301 40.3758 41.8301C41.0293 41.8301 41.4961 41.5988 41.7762 41.1823V41.7376H42.7564V39.5165ZM39.1622 39.5165C39.1622 38.7299 39.6757 38.0821 40.5159 38.0821C41.3094 38.0821 41.8695 38.6836 41.8695 39.5165C41.8695 40.3031 41.3094 40.951 40.5159 40.951C39.6757 40.9047 39.1622 40.3031 39.1622 39.5165ZM27.4462 37.2029C26.1392 37.2029 25.2057 38.1283 25.2057 39.5165C25.2057 40.9047 26.1392 41.8301 27.4929 41.8301C28.1464 41.8301 28.7999 41.645 29.3133 41.2286L28.8465 40.5345C28.4731 40.8121 28.0063 40.9972 27.5396 40.9972C26.9328 40.9972 26.326 40.7196 26.1859 39.933H29.5C29.5 39.7942 29.5 39.7016 29.5 39.5628C29.5467 38.1283 28.7065 37.2029 27.4462 37.2029ZM27.4462 38.0358C28.053 38.0358 28.4731 38.406 28.5665 39.1001H26.2326C26.326 38.4985 26.7461 38.0358 27.4462 38.0358ZM51.7651 39.5165V35.5371H50.7849V37.8507C50.4581 37.4343 49.9914 37.2029 49.3846 37.2029C48.1243 37.2029 47.1441 38.1746 47.1441 39.5165C47.1441 40.8584 48.1243 41.8301 49.3846 41.8301C50.038 41.8301 50.5048 41.5988 50.7849 41.1823V41.7376H51.7651V39.5165ZM48.1709 39.5165C48.1709 38.7299 48.6844 38.0821 49.5246 38.0821C50.3181 38.0821 50.8782 38.6836 50.8782 39.5165C50.8782 40.3031 50.3181 40.951 49.5246 40.951C48.6844 40.9047 48.1709 40.3031 48.1709 39.5165ZM15.4035 39.5165V37.2954H14.4232V37.8507C14.0965 37.4343 13.6297 37.2029 13.0229 37.2029C11.7626 37.2029 10.7824 38.1746 10.7824 39.5165C10.7824 40.8584 11.7626 41.8301 13.0229 41.8301C13.6764 41.8301 14.1432 41.5988 14.4232 41.1823V41.7376H15.4035V39.5165ZM11.7626 39.5165C11.7626 38.7299 12.2761 38.0821 13.1163 38.0821C13.9098 38.0821 14.4699 38.6836 14.4699 39.5165C14.4699 40.3031 13.9098 40.951 13.1163 40.951C12.2761 40.9047 11.7626 40.3031 11.7626 39.5165Z" fill="#2D2D2D"/>
<path d="M34.5412 3.56299H19.8379V29.7531H34.5412V3.56299Z" fill="#FF5F00"/>
<path d="M20.7714 16.658C20.7714 11.3367 23.292 6.61693 27.1662 3.56296C24.3189 1.3419 20.7247 0 16.8038 0C7.51505 0 0 7.44982 0 16.658C0 25.8662 7.51505 33.316 16.8038 33.316C20.7247 33.316 24.3189 31.9741 27.1662 29.753C23.292 26.7453 20.7714 21.9793 20.7714 16.658Z" fill="#EB001B"/>
<path d="M54.3791 16.658C54.3791 25.8662 46.864 33.316 37.5753 33.316C33.6544 33.316 30.0602 31.9741 27.2129 29.753C31.1338 26.6991 33.6077 21.9793 33.6077 16.658C33.6077 11.3367 31.0871 6.61693 27.2129 3.56296C30.0602 1.3419 33.6544 0 37.5753 0C46.864 0 54.3791 7.4961 54.3791 16.658Z" fill="#F79E1B"/>
</g>
<defs>
<clipPath id="clip0_202_201">
<rect width="54.3791" height="41.8301" fill="white"/>
</clipPath>
</defs>
</svg>
