<svg width="79" height="34" viewBox="0 0 79 34" fill="none" xmlns="http://www.w3.org/2000/svg">
<path d="M2.60754 5.75665C3.56347 5.25226 4.65663 5.45596 5.68353 5.43656C8.03548 5.4996 10.3922 5.37836 12.7441 5.48505C13.8041 5.4802 14.7127 6.38228 14.8594 7.4347C15.5977 11.1012 16.2744 14.7822 16.9984 18.4584C15.8012 14.1518 12.64 10.6356 8.92515 8.39982C6.96125 7.19221 4.7702 6.48898 2.60754 5.75665Z" fill="#F4A929"/>
<path d="M23.0699 5.44623C25.1095 5.47048 27.1444 5.46078 29.1793 5.44623C26.0843 13.0266 23.1976 20.6942 20.0365 28.2454C18.0489 28.1824 16.0613 28.2115 14.0738 28.2115C12.3134 21.6205 10.6713 14.9956 8.92505 8.3998C12.6399 10.6356 15.8011 14.1517 16.9983 18.4584C17.1782 19.2926 17.3059 20.1462 17.4621 20.99C19.3172 15.8055 21.1959 10.6259 23.0699 5.44623Z" fill="#1B4DA2"/>
<path d="M31.465 5.43658C33.3816 5.45113 35.2982 5.45113 37.2148 5.43658C36.0364 13.0315 34.7965 20.6167 33.6466 28.2164C31.7395 28.2212 29.8324 28.2212 27.9205 28.2164C29.0184 20.6118 30.3103 13.0363 31.465 5.43658Z" fill="#1B4DA2"/>
<path d="M42.6663 6.86732C46.102 4.55393 50.5929 4.62183 54.393 5.9022C54.2179 7.5851 53.9434 9.25345 53.6594 10.917C51.6388 9.92273 49.2821 9.48139 47.0863 10.0585C46.0499 10.3107 45.0277 11.6299 45.889 12.6193C47.6589 14.4768 50.4462 14.8987 52.112 16.9211C54.0428 18.8562 53.9718 22.1153 52.6562 24.3802C51.2649 26.7712 48.5864 28.0224 45.9789 28.3813C43.0307 28.6966 39.9595 28.5074 37.1958 27.3386C37.4892 25.6411 37.7353 23.934 38.0334 22.2365C40.4232 23.5023 43.1964 24.1377 45.8606 23.5314C46.7645 23.2211 47.6968 22.4596 47.6163 21.3733C47.3182 20.0783 45.9979 19.5255 44.971 18.9386C42.9787 17.9347 40.8349 16.7028 39.9405 14.4962C38.8284 11.7075 40.3002 8.44352 42.6663 6.86732Z" fill="#1B4DA2"/>
<path d="M61.515 7.7692C61.8983 6.72163 62.6555 5.58191 63.8528 5.51886C65.6132 5.39276 67.3831 5.49946 69.1435 5.46551C70.7193 13.0507 72.2431 20.6407 73.7953 28.2259C72.0254 28.2308 70.2556 28.2308 68.4857 28.2356C68.2349 27.0959 67.9983 25.9513 67.7711 24.8019C65.3151 24.8019 62.8637 24.8068 60.4124 24.7922C60.0196 25.9416 59.6126 27.091 59.1915 28.2308C57.185 28.2308 55.1785 28.2308 53.172 28.2356C55.9451 21.4119 58.7466 14.5978 61.515 7.7692Z" fill="#1B4DA2"/>
<path d="M62.0829 20.1074C63.1524 17.2896 64.0279 14.3894 65.2251 11.625C65.5801 14.4864 66.2757 17.2896 66.8483 20.1123C65.2583 20.1123 63.6729 20.1123 62.0829 20.1074Z" fill="white"/>
</svg>
