<svg xmlns="http://www.w3.org/2000/svg" version="1.1" xmlns:xlink="http://www.w3.org/1999/xlink" xmlns:svgjs="http://svgjs.com/svgjs" width="512" height="512" x="0" y="0" viewBox="0 0 511.91 511.91" style="enable-background:new 0 0 512 512" xml:space="preserve" class=""><g><path fill="#cee1f2" d="M69.439 375.257c14.242 5.405 48.796 18.343 48.758 18.763-16.736-5.28-34.921.705-43.111 16.438l-.181.348c-7.608 14.615-3.862 32.168 8.115 42.503-.005.901.106 5.315.182 6.666-17.045-7.296-31.897-14.923-44.823-21.829-16.858-9.006-23.299-29.92-14.474-46.873l.181-.348c8.557-16.438 28.026-22.244 45.353-15.668zm144.692-46.289c-7.336-.998-14.627-.719-21.316 1.146-38.287 11.421-39.166 62.932 1.05 76.473 13.791 5.043 30.138 7.122 47.031 7.495.214-3.495.514-6.984.911-10.465-26.347-13.261-22.265-50.569 5.232-58.143.482-.135 2.25-14.22 2.25-14.22-10.966.107-22.645-.584-35.158-2.286z" data-original="#cee1f2" class=""></path><path fill="#a51515" d="M497.1 405.83c-5.893-1.287-31.229-5.227-63.41 12.234-45.462 24.667-115.65 54.072-191.849 54.072-85.594 0-143.842-24.815-194.038-51.631-7.147-3.818-9.725-13.144-5.977-20.345 4.178-8.028 13.564-8.845 20.516-6.206 41.47 15.741 106.611 39.841 182.611 40.182 21.834 0 44.965-2.633 64.083-7.657 10.683-2.807 17.067-13.743 14.26-24.426-2.807-10.682-13.742-17.069-24.426-14.26-16.326 4.29-35.887 6.478-54.913 6.334-17.727-.194-32.272-2.319-43.225-6.324-7.591-2.775-13.104-7.332-15.523-12.831-1.972-4.482-1.863-9.443.324-14.744 2.821-6.836 8.438-9.673 12.655-10.849 3.775-1.053 8.356-1.258 13.247-.594 12.489 1.699 24.259 2.463 35.379 2.463 61.816-.001 103.415-23.622 135.088-41.609 21.154-12.013 37.862-21.502 54.051-21.502 21.048 0 34.27 4.146 50.026 9.087 25.639 6.916 36.941-29.253 11.947-38.174-16.963-5.32-34.8-10.913-61.974-10.913-26.754 0-49.608 12.979-73.803 26.719-35.999 20.443-76.803 43.614-145.324 34.294-10.39-1.412-20.276-.841-29.383 1.7-17.814 4.968-31.987 17.405-38.885 34.122-4.73 11.466-5.91 23.525-3.544 34.913-25.647-7.073-49.208-16.012-68.478-23.327-27.629-10.483-57.333.44-70.37 25.48-13.829 26.564-3.604 59.647 22.79 73.749 122.036 71.126 282.966 78.167 423.812-2.564 20.736-11.252 34.035-8.761 34.035-8.761 25.974 5.722 35.638-30.735 10.298-38.632z" data-original="#0023c4" class=""></path><path fill="#e9b535" d="M320.264 89.775a59.97 59.97 0 0 0-45.319-20.678h-22.277v-8.96c-3.305-79.618-116.724-79.556-120 0v8.96h-22.845c-35.751-.579-65.014 33.154-59.401 68.461l8.954 62.861a80.005 80.005 0 0 0 79.2 68.719h107.613c38.83.626 74.344-30.19 79.201-68.719l8.954-62.86a59.964 59.964 0 0 0-14.08-47.784zM172.669 60.137c1.102-26.539 38.908-26.519 40 0v8.96h-40zm122.076 71.78-8.954 62.86c-2.79 19.588-19.814 34.359-39.6 34.359H138.578c-19.786 0-36.81-14.771-39.6-34.359l-8.954-62.86c-1.938-11.718 7.927-23.086 19.8-22.82h22.845v25.04c1.056 26.536 38.953 26.516 40 0v-25.04h40v25.04c1.056 26.536 38.953 26.516 40 0v-25.04h22.277c5.885 0 11.25 2.448 15.106 6.893 3.856 4.444 5.523 10.101 4.693 15.927z" data-original="#ff5cf3" class=""></path></g>
</svg>